<mxfile host="app.diagrams.net" agent="Mozilla/5.0 (Windows NT 10.0; Win64; x64) AppleWebKit/537.36 (KHTML, like Gecko) Chrome/129.0.0.0 Safari/537.36" version="24.7.17">
  <diagram id="C5RBs43oDa-KdzZeNtuy" name="Page-1">
    <mxGraphModel dx="2807" dy="1030" grid="1" gridSize="10" guides="1" tooltips="1" connect="1" arrows="1" fold="1" page="1" pageScale="1" pageWidth="827" pageHeight="1169" math="0" shadow="0">
      <root>
        <mxCell id="WIyWlLk6GJQsqaUBKTNV-0" />
        <mxCell id="WIyWlLk6GJQsqaUBKTNV-1" parent="WIyWlLk6GJQsqaUBKTNV-0" />
        <mxCell id="WIyWlLk6GJQsqaUBKTNV-2" value="" style="rounded=0;html=1;jettySize=auto;orthogonalLoop=1;fontSize=11;endArrow=block;endFill=0;endSize=8;strokeWidth=1;shadow=0;labelBackgroundColor=none;edgeStyle=orthogonalEdgeStyle;" parent="WIyWlLk6GJQsqaUBKTNV-1" source="WIyWlLk6GJQsqaUBKTNV-3" edge="1">
          <mxGeometry relative="1" as="geometry">
            <mxPoint x="220" y="170" as="targetPoint" />
          </mxGeometry>
        </mxCell>
        <mxCell id="WIyWlLk6GJQsqaUBKTNV-3" value="start" style="rounded=1;whiteSpace=wrap;html=1;fontSize=12;glass=0;strokeWidth=1;shadow=0;" parent="WIyWlLk6GJQsqaUBKTNV-1" vertex="1">
          <mxGeometry x="160" y="80" width="120" height="40" as="geometry" />
        </mxCell>
        <mxCell id="WIyWlLk6GJQsqaUBKTNV-4" value="" style="rounded=0;html=1;jettySize=auto;orthogonalLoop=1;fontSize=11;endArrow=block;endFill=0;endSize=8;strokeWidth=1;shadow=0;labelBackgroundColor=none;edgeStyle=orthogonalEdgeStyle;" parent="WIyWlLk6GJQsqaUBKTNV-1" edge="1">
          <mxGeometry y="20" relative="1" as="geometry">
            <mxPoint as="offset" />
            <mxPoint x="220" y="230" as="sourcePoint" />
            <mxPoint x="220" y="290" as="targetPoint" />
            <Array as="points" />
          </mxGeometry>
        </mxCell>
        <mxCell id="SZtpY77A_bUP3VGcqHaU-2" value="&lt;font face=&quot;Times New Roman&quot;&gt;&quot;Selamat Datang di Manajemen Data Webtoon Indonesia.&amp;nbsp;&lt;/font&gt;&lt;div&gt;&lt;font face=&quot;Times New Roman&quot;&gt;Silahkan Registrasi!&quot;&lt;/font&gt;&lt;/div&gt;" style="shape=parallelogram;perimeter=parallelogramPerimeter;whiteSpace=wrap;html=1;fixedSize=1;" parent="WIyWlLk6GJQsqaUBKTNV-1" vertex="1">
          <mxGeometry x="35" y="170" width="370" height="60" as="geometry" />
        </mxCell>
        <mxCell id="SZtpY77A_bUP3VGcqHaU-4" value="users = [ ]" style="rounded=0;whiteSpace=wrap;html=1;" parent="WIyWlLk6GJQsqaUBKTNV-1" vertex="1">
          <mxGeometry x="160" y="290" width="120" height="60" as="geometry" />
        </mxCell>
        <mxCell id="SZtpY77A_bUP3VGcqHaU-9" value="" style="endArrow=classic;html=1;rounded=0;entryX=0.5;entryY=0;entryDx=0;entryDy=0;" parent="WIyWlLk6GJQsqaUBKTNV-1" edge="1">
          <mxGeometry width="50" height="50" relative="1" as="geometry">
            <mxPoint x="219.5" y="350" as="sourcePoint" />
            <mxPoint x="220" y="390" as="targetPoint" />
            <Array as="points">
              <mxPoint x="219.5" y="350" />
            </Array>
          </mxGeometry>
        </mxCell>
        <mxCell id="SZtpY77A_bUP3VGcqHaU-12" value="" style="endArrow=classic;html=1;rounded=0;exitX=0.5;exitY=1;exitDx=0;exitDy=0;" parent="WIyWlLk6GJQsqaUBKTNV-1" edge="1">
          <mxGeometry width="50" height="50" relative="1" as="geometry">
            <mxPoint x="220" y="430" as="sourcePoint" />
            <mxPoint x="220" y="480" as="targetPoint" />
            <Array as="points" />
          </mxGeometry>
        </mxCell>
        <mxCell id="SZtpY77A_bUP3VGcqHaU-19" value="" style="edgeStyle=orthogonalEdgeStyle;rounded=0;orthogonalLoop=1;jettySize=auto;html=1;" parent="WIyWlLk6GJQsqaUBKTNV-1" source="SZtpY77A_bUP3VGcqHaU-18" target="SZtpY77A_bUP3VGcqHaU-4" edge="1">
          <mxGeometry relative="1" as="geometry" />
        </mxCell>
        <mxCell id="SZtpY77A_bUP3VGcqHaU-18" value="input username, password, dan role" style="shape=parallelogram;perimeter=parallelogramPerimeter;whiteSpace=wrap;html=1;fixedSize=1;" parent="WIyWlLk6GJQsqaUBKTNV-1" vertex="1">
          <mxGeometry x="150" y="390" width="140" height="60" as="geometry" />
        </mxCell>
        <mxCell id="SZtpY77A_bUP3VGcqHaU-21" value="role == &quot;admin&quot; or&amp;nbsp;&lt;div&gt;role == &quot;pengguna&quot;&lt;/div&gt;" style="rhombus;whiteSpace=wrap;html=1;" parent="WIyWlLk6GJQsqaUBKTNV-1" vertex="1">
          <mxGeometry x="140" y="480" width="160" height="120" as="geometry" />
        </mxCell>
        <mxCell id="SZtpY77A_bUP3VGcqHaU-22" value="" style="endArrow=classic;html=1;rounded=0;exitX=1;exitY=0.5;exitDx=0;exitDy=0;" parent="WIyWlLk6GJQsqaUBKTNV-1" source="SZtpY77A_bUP3VGcqHaU-21" edge="1">
          <mxGeometry width="50" height="50" relative="1" as="geometry">
            <mxPoint x="310" y="470" as="sourcePoint" />
            <mxPoint x="380" y="540" as="targetPoint" />
            <Array as="points">
              <mxPoint x="340" y="540" />
              <mxPoint x="350" y="540" />
            </Array>
          </mxGeometry>
        </mxCell>
        <mxCell id="SZtpY77A_bUP3VGcqHaU-24" value="&amp;nbsp;True&amp;nbsp;" style="edgeLabel;html=1;align=center;verticalAlign=middle;resizable=0;points=[];" parent="SZtpY77A_bUP3VGcqHaU-22" vertex="1" connectable="0">
          <mxGeometry x="-0.2854" y="-3" relative="1" as="geometry">
            <mxPoint as="offset" />
          </mxGeometry>
        </mxCell>
        <mxCell id="SZtpY77A_bUP3VGcqHaU-44" style="edgeStyle=orthogonalEdgeStyle;rounded=0;orthogonalLoop=1;jettySize=auto;html=1;entryX=0.5;entryY=0;entryDx=0;entryDy=0;" parent="WIyWlLk6GJQsqaUBKTNV-1" source="SZtpY77A_bUP3VGcqHaU-25" target="SZtpY77A_bUP3VGcqHaU-32" edge="1">
          <mxGeometry relative="1" as="geometry" />
        </mxCell>
        <mxCell id="SZtpY77A_bUP3VGcqHaU-25" value="&quot;Registrasi Berhasil.&quot;" style="shape=parallelogram;perimeter=parallelogramPerimeter;whiteSpace=wrap;html=1;fixedSize=1;" parent="WIyWlLk6GJQsqaUBKTNV-1" vertex="1">
          <mxGeometry x="370" y="510" width="150" height="60" as="geometry" />
        </mxCell>
        <mxCell id="eADo7EbDgWxF7nHts_-I-171" style="edgeStyle=orthogonalEdgeStyle;rounded=0;orthogonalLoop=1;jettySize=auto;html=1;exitX=0;exitY=0.5;exitDx=0;exitDy=0;entryX=0;entryY=0.5;entryDx=0;entryDy=0;" edge="1" parent="WIyWlLk6GJQsqaUBKTNV-1" source="SZtpY77A_bUP3VGcqHaU-26" target="SZtpY77A_bUP3VGcqHaU-18">
          <mxGeometry relative="1" as="geometry">
            <mxPoint x="140" y="420" as="targetPoint" />
            <mxPoint x="80" y="640" as="sourcePoint" />
            <Array as="points">
              <mxPoint x="160" y="640" />
              <mxPoint x="90" y="640" />
              <mxPoint x="90" y="420" />
            </Array>
          </mxGeometry>
        </mxCell>
        <mxCell id="SZtpY77A_bUP3VGcqHaU-26" value="&quot;Data tidak Valid.&quot;" style="rounded=0;whiteSpace=wrap;html=1;" parent="WIyWlLk6GJQsqaUBKTNV-1" vertex="1">
          <mxGeometry x="160" y="620" width="120" height="60" as="geometry" />
        </mxCell>
        <mxCell id="SZtpY77A_bUP3VGcqHaU-29" value="" style="endArrow=classic;html=1;rounded=0;entryX=0.5;entryY=0;entryDx=0;entryDy=0;" parent="WIyWlLk6GJQsqaUBKTNV-1" source="SZtpY77A_bUP3VGcqHaU-21" target="SZtpY77A_bUP3VGcqHaU-26" edge="1">
          <mxGeometry width="50" height="50" relative="1" as="geometry">
            <mxPoint x="310" y="540" as="sourcePoint" />
            <mxPoint x="360" y="490" as="targetPoint" />
            <Array as="points">
              <mxPoint x="220" y="620" />
            </Array>
          </mxGeometry>
        </mxCell>
        <mxCell id="SZtpY77A_bUP3VGcqHaU-43" style="edgeStyle=orthogonalEdgeStyle;rounded=0;orthogonalLoop=1;jettySize=auto;html=1;exitX=0.5;exitY=1;exitDx=0;exitDy=0;entryX=0.5;entryY=0;entryDx=0;entryDy=0;" parent="WIyWlLk6GJQsqaUBKTNV-1" source="SZtpY77A_bUP3VGcqHaU-32" target="SZtpY77A_bUP3VGcqHaU-40" edge="1">
          <mxGeometry relative="1" as="geometry" />
        </mxCell>
        <mxCell id="SZtpY77A_bUP3VGcqHaU-32" value="login&amp;nbsp; = 0" style="rounded=0;whiteSpace=wrap;html=1;" parent="WIyWlLk6GJQsqaUBKTNV-1" vertex="1">
          <mxGeometry x="385" y="600" width="120" height="60" as="geometry" />
        </mxCell>
        <mxCell id="SZtpY77A_bUP3VGcqHaU-46" style="edgeStyle=orthogonalEdgeStyle;rounded=0;orthogonalLoop=1;jettySize=auto;html=1;exitX=0.5;exitY=1;exitDx=0;exitDy=0;entryX=0.5;entryY=0;entryDx=0;entryDy=0;" parent="WIyWlLk6GJQsqaUBKTNV-1" source="SZtpY77A_bUP3VGcqHaU-40" target="SZtpY77A_bUP3VGcqHaU-45" edge="1">
          <mxGeometry relative="1" as="geometry" />
        </mxCell>
        <mxCell id="SZtpY77A_bUP3VGcqHaU-40" value="login &amp;lt; 3" style="shape=hexagon;perimeter=hexagonPerimeter2;whiteSpace=wrap;html=1;fixedSize=1;" parent="WIyWlLk6GJQsqaUBKTNV-1" vertex="1">
          <mxGeometry x="385" y="700" width="120" height="50" as="geometry" />
        </mxCell>
        <mxCell id="SZtpY77A_bUP3VGcqHaU-50" style="edgeStyle=orthogonalEdgeStyle;rounded=0;orthogonalLoop=1;jettySize=auto;html=1;" parent="WIyWlLk6GJQsqaUBKTNV-1" source="SZtpY77A_bUP3VGcqHaU-45" target="SZtpY77A_bUP3VGcqHaU-48" edge="1">
          <mxGeometry relative="1" as="geometry" />
        </mxCell>
        <mxCell id="SZtpY77A_bUP3VGcqHaU-45" value="&quot;Login User&quot;" style="shape=parallelogram;perimeter=parallelogramPerimeter;whiteSpace=wrap;html=1;fixedSize=1;" parent="WIyWlLk6GJQsqaUBKTNV-1" vertex="1">
          <mxGeometry x="385" y="780" width="120" height="60" as="geometry" />
        </mxCell>
        <mxCell id="SZtpY77A_bUP3VGcqHaU-55" style="edgeStyle=orthogonalEdgeStyle;rounded=0;orthogonalLoop=1;jettySize=auto;html=1;" parent="WIyWlLk6GJQsqaUBKTNV-1" source="SZtpY77A_bUP3VGcqHaU-48" target="SZtpY77A_bUP3VGcqHaU-52" edge="1">
          <mxGeometry relative="1" as="geometry" />
        </mxCell>
        <mxCell id="SZtpY77A_bUP3VGcqHaU-48" value="input username_in, password_in, role_in" style="shape=parallelogram;perimeter=parallelogramPerimeter;whiteSpace=wrap;html=1;fixedSize=1;" parent="WIyWlLk6GJQsqaUBKTNV-1" vertex="1">
          <mxGeometry x="315" y="870" width="260" height="60" as="geometry" />
        </mxCell>
        <mxCell id="eADo7EbDgWxF7nHts_-I-41" style="edgeStyle=orthogonalEdgeStyle;rounded=0;orthogonalLoop=1;jettySize=auto;html=1;" edge="1" parent="WIyWlLk6GJQsqaUBKTNV-1" source="SZtpY77A_bUP3VGcqHaU-52">
          <mxGeometry relative="1" as="geometry">
            <mxPoint x="270" y="1110" as="targetPoint" />
            <Array as="points">
              <mxPoint x="270" y="1045" />
            </Array>
          </mxGeometry>
        </mxCell>
        <mxCell id="eADo7EbDgWxF7nHts_-I-205" value="False" style="edgeLabel;html=1;align=center;verticalAlign=middle;resizable=0;points=[];" vertex="1" connectable="0" parent="eADo7EbDgWxF7nHts_-I-41">
          <mxGeometry x="-0.3626" y="-3" relative="1" as="geometry">
            <mxPoint as="offset" />
          </mxGeometry>
        </mxCell>
        <mxCell id="SZtpY77A_bUP3VGcqHaU-52" value="if username_in == username&amp;nbsp;&lt;div&gt;and&amp;nbsp;&lt;span style=&quot;background-color: initial;&quot;&gt;&amp;nbsp;password_in == password&amp;nbsp;&lt;/span&gt;&lt;/div&gt;&lt;div&gt;&lt;span style=&quot;background-color: initial;&quot;&gt;and&amp;nbsp;&lt;/span&gt;&lt;span style=&quot;background-color: initial;&quot;&gt;role_in = &quot;admin&quot;&lt;/span&gt;&lt;/div&gt;" style="rhombus;whiteSpace=wrap;html=1;" parent="WIyWlLk6GJQsqaUBKTNV-1" vertex="1">
          <mxGeometry x="325" y="970" width="240" height="150" as="geometry" />
        </mxCell>
        <mxCell id="SZtpY77A_bUP3VGcqHaU-57" value="" style="endArrow=classic;html=1;rounded=0;exitX=1;exitY=0.5;exitDx=0;exitDy=0;" parent="WIyWlLk6GJQsqaUBKTNV-1" source="SZtpY77A_bUP3VGcqHaU-52" edge="1">
          <mxGeometry width="50" height="50" relative="1" as="geometry">
            <mxPoint x="420" y="1070" as="sourcePoint" />
            <mxPoint x="630" y="1045" as="targetPoint" />
            <Array as="points" />
          </mxGeometry>
        </mxCell>
        <mxCell id="eADo7EbDgWxF7nHts_-I-203" value="True" style="edgeLabel;html=1;align=center;verticalAlign=middle;resizable=0;points=[];" vertex="1" connectable="0" parent="SZtpY77A_bUP3VGcqHaU-57">
          <mxGeometry x="-0.2479" relative="1" as="geometry">
            <mxPoint as="offset" />
          </mxGeometry>
        </mxCell>
        <mxCell id="GJBjV4vL7WstKXEYxfG4-0" style="edgeStyle=orthogonalEdgeStyle;rounded=0;orthogonalLoop=1;jettySize=auto;html=1;" parent="WIyWlLk6GJQsqaUBKTNV-1" source="SZtpY77A_bUP3VGcqHaU-60" edge="1">
          <mxGeometry relative="1" as="geometry">
            <mxPoint x="790" y="1045" as="targetPoint" />
          </mxGeometry>
        </mxCell>
        <mxCell id="SZtpY77A_bUP3VGcqHaU-60" value="&quot;Menu Utama&quot;&lt;div&gt;&lt;br&gt;&lt;/div&gt;" style="shape=parallelogram;perimeter=parallelogramPerimeter;whiteSpace=wrap;html=1;fixedSize=1;" parent="WIyWlLk6GJQsqaUBKTNV-1" vertex="1">
          <mxGeometry x="620" y="1015" width="120" height="60" as="geometry" />
        </mxCell>
        <mxCell id="JGJfeQF-g1EkItHv-nmV-0" value="" style="endArrow=classic;html=1;rounded=0;" parent="WIyWlLk6GJQsqaUBKTNV-1" edge="1">
          <mxGeometry width="50" height="50" relative="1" as="geometry">
            <mxPoint x="839.5" y="1064" as="sourcePoint" />
            <mxPoint x="839.5" y="1114" as="targetPoint" />
            <Array as="points">
              <mxPoint x="839.5" y="1094" />
            </Array>
          </mxGeometry>
        </mxCell>
        <mxCell id="GJBjV4vL7WstKXEYxfG4-6" style="edgeStyle=orthogonalEdgeStyle;rounded=0;orthogonalLoop=1;jettySize=auto;html=1;" parent="WIyWlLk6GJQsqaUBKTNV-1" source="JGJfeQF-g1EkItHv-nmV-2" edge="1">
          <mxGeometry relative="1" as="geometry">
            <mxPoint x="930" y="1210" as="targetPoint" />
          </mxGeometry>
        </mxCell>
        <mxCell id="eADo7EbDgWxF7nHts_-I-209" value="True" style="edgeLabel;html=1;align=center;verticalAlign=middle;resizable=0;points=[];" vertex="1" connectable="0" parent="GJBjV4vL7WstKXEYxfG4-6">
          <mxGeometry x="-0.7237" y="2" relative="1" as="geometry">
            <mxPoint x="-1" as="offset" />
          </mxGeometry>
        </mxCell>
        <mxCell id="GJBjV4vL7WstKXEYxfG4-10" style="edgeStyle=orthogonalEdgeStyle;rounded=0;orthogonalLoop=1;jettySize=auto;html=1;" parent="WIyWlLk6GJQsqaUBKTNV-1" source="JGJfeQF-g1EkItHv-nmV-2" edge="1">
          <mxGeometry relative="1" as="geometry">
            <mxPoint x="720" y="1200" as="targetPoint" />
          </mxGeometry>
        </mxCell>
        <mxCell id="eADo7EbDgWxF7nHts_-I-211" value="False" style="edgeLabel;html=1;align=center;verticalAlign=middle;resizable=0;points=[];" vertex="1" connectable="0" parent="GJBjV4vL7WstKXEYxfG4-10">
          <mxGeometry x="-0.5557" y="2" relative="1" as="geometry">
            <mxPoint x="-1" as="offset" />
          </mxGeometry>
        </mxCell>
        <mxCell id="JGJfeQF-g1EkItHv-nmV-2" value="if&amp;nbsp; pilih == 1" style="rhombus;whiteSpace=wrap;html=1;" parent="WIyWlLk6GJQsqaUBKTNV-1" vertex="1">
          <mxGeometry x="790" y="1089" width="100" height="80" as="geometry" />
        </mxCell>
        <mxCell id="GJBjV4vL7WstKXEYxfG4-2" value="input pilih" style="shape=parallelogram;perimeter=parallelogramPerimeter;whiteSpace=wrap;html=1;fixedSize=1;" parent="WIyWlLk6GJQsqaUBKTNV-1" vertex="1">
          <mxGeometry x="780" y="1015" width="120" height="60" as="geometry" />
        </mxCell>
        <mxCell id="eADo7EbDgWxF7nHts_-I-173" style="edgeStyle=orthogonalEdgeStyle;rounded=0;orthogonalLoop=1;jettySize=auto;html=1;" edge="1" parent="WIyWlLk6GJQsqaUBKTNV-1" source="GJBjV4vL7WstKXEYxfG4-8">
          <mxGeometry relative="1" as="geometry">
            <mxPoint x="925" y="1800" as="targetPoint" />
          </mxGeometry>
        </mxCell>
        <mxCell id="GJBjV4vL7WstKXEYxfG4-8" value="input judul, pembaca,&amp;nbsp;&lt;div&gt;genre, rating&lt;/div&gt;" style="shape=parallelogram;perimeter=parallelogramPerimeter;whiteSpace=wrap;html=1;fixedSize=1;" parent="WIyWlLk6GJQsqaUBKTNV-1" vertex="1">
          <mxGeometry x="840" y="1210" width="170" height="60" as="geometry" />
        </mxCell>
        <mxCell id="GJBjV4vL7WstKXEYxfG4-14" style="edgeStyle=orthogonalEdgeStyle;rounded=0;orthogonalLoop=1;jettySize=auto;html=1;" parent="WIyWlLk6GJQsqaUBKTNV-1" source="GJBjV4vL7WstKXEYxfG4-11" edge="1">
          <mxGeometry relative="1" as="geometry">
            <mxPoint x="800" y="1320" as="targetPoint" />
          </mxGeometry>
        </mxCell>
        <mxCell id="eADo7EbDgWxF7nHts_-I-212" value="True" style="edgeLabel;html=1;align=center;verticalAlign=middle;resizable=0;points=[];" vertex="1" connectable="0" parent="GJBjV4vL7WstKXEYxfG4-14">
          <mxGeometry x="-0.6224" relative="1" as="geometry">
            <mxPoint as="offset" />
          </mxGeometry>
        </mxCell>
        <mxCell id="eADo7EbDgWxF7nHts_-I-1" style="edgeStyle=orthogonalEdgeStyle;rounded=0;orthogonalLoop=1;jettySize=auto;html=1;" edge="1" parent="WIyWlLk6GJQsqaUBKTNV-1" source="GJBjV4vL7WstKXEYxfG4-11">
          <mxGeometry relative="1" as="geometry">
            <mxPoint x="610" y="1310" as="targetPoint" />
          </mxGeometry>
        </mxCell>
        <mxCell id="eADo7EbDgWxF7nHts_-I-213" value="False" style="edgeLabel;html=1;align=center;verticalAlign=middle;resizable=0;points=[];" vertex="1" connectable="0" parent="eADo7EbDgWxF7nHts_-I-1">
          <mxGeometry x="-0.6402" relative="1" as="geometry">
            <mxPoint x="-1" as="offset" />
          </mxGeometry>
        </mxCell>
        <mxCell id="GJBjV4vL7WstKXEYxfG4-11" value="if pilih == 2" style="rhombus;whiteSpace=wrap;html=1;" parent="WIyWlLk6GJQsqaUBKTNV-1" vertex="1">
          <mxGeometry x="670" y="1200" width="100" height="80" as="geometry" />
        </mxCell>
        <mxCell id="eADo7EbDgWxF7nHts_-I-175" style="edgeStyle=orthogonalEdgeStyle;rounded=0;orthogonalLoop=1;jettySize=auto;html=1;" edge="1" parent="WIyWlLk6GJQsqaUBKTNV-1" source="GJBjV4vL7WstKXEYxfG4-15">
          <mxGeometry relative="1" as="geometry">
            <mxPoint x="930" y="1340.0000000000002" as="targetPoint" />
          </mxGeometry>
        </mxCell>
        <mxCell id="GJBjV4vL7WstKXEYxfG4-15" value="output judul, pembaca,&amp;nbsp;&lt;div&gt;genre, rating&lt;/div&gt;" style="shape=parallelogram;perimeter=parallelogramPerimeter;whiteSpace=wrap;html=1;fixedSize=1;" parent="WIyWlLk6GJQsqaUBKTNV-1" vertex="1">
          <mxGeometry x="710" y="1320" width="180" height="40" as="geometry" />
        </mxCell>
        <mxCell id="eADo7EbDgWxF7nHts_-I-2" style="edgeStyle=orthogonalEdgeStyle;rounded=0;orthogonalLoop=1;jettySize=auto;html=1;" edge="1" parent="WIyWlLk6GJQsqaUBKTNV-1" source="GJBjV4vL7WstKXEYxfG4-20">
          <mxGeometry relative="1" as="geometry">
            <mxPoint x="680" y="1430" as="targetPoint" />
          </mxGeometry>
        </mxCell>
        <mxCell id="eADo7EbDgWxF7nHts_-I-215" value="True" style="edgeLabel;html=1;align=center;verticalAlign=middle;resizable=0;points=[];" vertex="1" connectable="0" parent="eADo7EbDgWxF7nHts_-I-2">
          <mxGeometry x="0.1441" relative="1" as="geometry">
            <mxPoint as="offset" />
          </mxGeometry>
        </mxCell>
        <mxCell id="eADo7EbDgWxF7nHts_-I-3" style="edgeStyle=orthogonalEdgeStyle;rounded=0;orthogonalLoop=1;jettySize=auto;html=1;entryX=0.5;entryY=0;entryDx=0;entryDy=0;" edge="1" parent="WIyWlLk6GJQsqaUBKTNV-1" source="GJBjV4vL7WstKXEYxfG4-20">
          <mxGeometry relative="1" as="geometry">
            <mxPoint x="440" y="1430" as="targetPoint" />
            <Array as="points">
              <mxPoint x="440" y="1350" />
              <mxPoint x="440" y="1440" />
            </Array>
          </mxGeometry>
        </mxCell>
        <mxCell id="eADo7EbDgWxF7nHts_-I-216" value="False" style="edgeLabel;html=1;align=center;verticalAlign=middle;resizable=0;points=[];" vertex="1" connectable="0" parent="eADo7EbDgWxF7nHts_-I-3">
          <mxGeometry x="-0.5277" y="1" relative="1" as="geometry">
            <mxPoint as="offset" />
          </mxGeometry>
        </mxCell>
        <mxCell id="GJBjV4vL7WstKXEYxfG4-20" value="if pilih == 3" style="rhombus;whiteSpace=wrap;html=1;" parent="WIyWlLk6GJQsqaUBKTNV-1" vertex="1">
          <mxGeometry x="560" y="1310" width="100" height="80" as="geometry" />
        </mxCell>
        <mxCell id="eADo7EbDgWxF7nHts_-I-5" style="edgeStyle=orthogonalEdgeStyle;rounded=0;orthogonalLoop=1;jettySize=auto;html=1;" edge="1" parent="WIyWlLk6GJQsqaUBKTNV-1" source="eADo7EbDgWxF7nHts_-I-4">
          <mxGeometry relative="1" as="geometry">
            <mxPoint x="680" y="1500" as="targetPoint" />
          </mxGeometry>
        </mxCell>
        <mxCell id="eADo7EbDgWxF7nHts_-I-4" value="input judul lama" style="shape=parallelogram;perimeter=parallelogramPerimeter;whiteSpace=wrap;html=1;fixedSize=1;" vertex="1" parent="WIyWlLk6GJQsqaUBKTNV-1">
          <mxGeometry x="620" y="1430" width="120" height="30" as="geometry" />
        </mxCell>
        <mxCell id="eADo7EbDgWxF7nHts_-I-9" style="edgeStyle=orthogonalEdgeStyle;rounded=0;orthogonalLoop=1;jettySize=auto;html=1;" edge="1" parent="WIyWlLk6GJQsqaUBKTNV-1" source="eADo7EbDgWxF7nHts_-I-7" target="eADo7EbDgWxF7nHts_-I-13">
          <mxGeometry relative="1" as="geometry">
            <mxPoint x="810" y="1630" as="targetPoint" />
            <Array as="points">
              <mxPoint x="810" y="1555" />
            </Array>
          </mxGeometry>
        </mxCell>
        <mxCell id="eADo7EbDgWxF7nHts_-I-12" value="True" style="edgeLabel;html=1;align=center;verticalAlign=middle;resizable=0;points=[];" vertex="1" connectable="0" parent="eADo7EbDgWxF7nHts_-I-9">
          <mxGeometry x="-0.4615" relative="1" as="geometry">
            <mxPoint as="offset" />
          </mxGeometry>
        </mxCell>
        <mxCell id="eADo7EbDgWxF7nHts_-I-14" style="edgeStyle=orthogonalEdgeStyle;rounded=0;orthogonalLoop=1;jettySize=auto;html=1;" edge="1" parent="WIyWlLk6GJQsqaUBKTNV-1" source="eADo7EbDgWxF7nHts_-I-7" target="eADo7EbDgWxF7nHts_-I-16">
          <mxGeometry relative="1" as="geometry">
            <mxPoint x="560" y="1620" as="targetPoint" />
            <Array as="points">
              <mxPoint x="550" y="1555" />
            </Array>
          </mxGeometry>
        </mxCell>
        <mxCell id="eADo7EbDgWxF7nHts_-I-17" value="False" style="edgeLabel;html=1;align=center;verticalAlign=middle;resizable=0;points=[];" vertex="1" connectable="0" parent="eADo7EbDgWxF7nHts_-I-14">
          <mxGeometry x="-0.4815" y="2" relative="1" as="geometry">
            <mxPoint as="offset" />
          </mxGeometry>
        </mxCell>
        <mxCell id="eADo7EbDgWxF7nHts_-I-7" value="judul lama == komik webtoon[i][0]" style="rhombus;whiteSpace=wrap;html=1;" vertex="1" parent="WIyWlLk6GJQsqaUBKTNV-1">
          <mxGeometry x="607.5" y="1500" width="145" height="110" as="geometry" />
        </mxCell>
        <mxCell id="eADo7EbDgWxF7nHts_-I-180" style="edgeStyle=orthogonalEdgeStyle;rounded=0;orthogonalLoop=1;jettySize=auto;html=1;" edge="1" parent="WIyWlLk6GJQsqaUBKTNV-1" source="eADo7EbDgWxF7nHts_-I-13">
          <mxGeometry relative="1" as="geometry">
            <mxPoint x="800" y="1800" as="targetPoint" />
            <Array as="points">
              <mxPoint x="800" y="1720" />
              <mxPoint x="801" y="1720" />
              <mxPoint x="801" y="1800" />
              <mxPoint x="800" y="1800" />
            </Array>
          </mxGeometry>
        </mxCell>
        <mxCell id="eADo7EbDgWxF7nHts_-I-13" value="input data baru" style="shape=parallelogram;perimeter=parallelogramPerimeter;whiteSpace=wrap;html=1;fixedSize=1;" vertex="1" parent="WIyWlLk6GJQsqaUBKTNV-1">
          <mxGeometry x="740" y="1630" width="120" height="40" as="geometry" />
        </mxCell>
        <mxCell id="eADo7EbDgWxF7nHts_-I-182" style="edgeStyle=orthogonalEdgeStyle;rounded=0;orthogonalLoop=1;jettySize=auto;html=1;" edge="1" parent="WIyWlLk6GJQsqaUBKTNV-1" source="eADo7EbDgWxF7nHts_-I-16">
          <mxGeometry relative="1" as="geometry">
            <mxPoint x="565" y="1800" as="targetPoint" />
            <Array as="points">
              <mxPoint x="565" y="1720" />
              <mxPoint x="566" y="1770" />
            </Array>
          </mxGeometry>
        </mxCell>
        <mxCell id="eADo7EbDgWxF7nHts_-I-16" value="Output &quot;Data tidak ditemukan.&quot;" style="shape=parallelogram;perimeter=parallelogramPerimeter;whiteSpace=wrap;html=1;fixedSize=1;" vertex="1" parent="WIyWlLk6GJQsqaUBKTNV-1">
          <mxGeometry x="490" y="1630" width="150" height="40" as="geometry" />
        </mxCell>
        <mxCell id="eADo7EbDgWxF7nHts_-I-20" style="edgeStyle=orthogonalEdgeStyle;rounded=0;orthogonalLoop=1;jettySize=auto;html=1;" edge="1" parent="WIyWlLk6GJQsqaUBKTNV-1" source="eADo7EbDgWxF7nHts_-I-19">
          <mxGeometry relative="1" as="geometry">
            <mxPoint x="440" y="1560" as="targetPoint" />
          </mxGeometry>
        </mxCell>
        <mxCell id="eADo7EbDgWxF7nHts_-I-21" value="True" style="edgeLabel;html=1;align=center;verticalAlign=middle;resizable=0;points=[];" vertex="1" connectable="0" parent="eADo7EbDgWxF7nHts_-I-20">
          <mxGeometry x="-0.3807" y="1" relative="1" as="geometry">
            <mxPoint as="offset" />
          </mxGeometry>
        </mxCell>
        <mxCell id="eADo7EbDgWxF7nHts_-I-22" style="edgeStyle=orthogonalEdgeStyle;rounded=0;orthogonalLoop=1;jettySize=auto;html=1;entryX=0.5;entryY=0;entryDx=0;entryDy=0;" edge="1" parent="WIyWlLk6GJQsqaUBKTNV-1" source="eADo7EbDgWxF7nHts_-I-19" target="eADo7EbDgWxF7nHts_-I-27">
          <mxGeometry relative="1" as="geometry">
            <mxPoint x="309.9999999999999" y="1470" as="targetPoint" />
          </mxGeometry>
        </mxCell>
        <mxCell id="eADo7EbDgWxF7nHts_-I-26" value="False" style="edgeLabel;html=1;align=center;verticalAlign=middle;resizable=0;points=[];" vertex="1" connectable="0" parent="eADo7EbDgWxF7nHts_-I-22">
          <mxGeometry x="-0.2148" y="-1" relative="1" as="geometry">
            <mxPoint as="offset" />
          </mxGeometry>
        </mxCell>
        <mxCell id="eADo7EbDgWxF7nHts_-I-19" value="if pilih == 4" style="rhombus;whiteSpace=wrap;html=1;" vertex="1" parent="WIyWlLk6GJQsqaUBKTNV-1">
          <mxGeometry x="390" y="1430" width="100" height="80" as="geometry" />
        </mxCell>
        <mxCell id="eADo7EbDgWxF7nHts_-I-24" style="edgeStyle=orthogonalEdgeStyle;rounded=0;orthogonalLoop=1;jettySize=auto;html=1;" edge="1" parent="WIyWlLk6GJQsqaUBKTNV-1" source="eADo7EbDgWxF7nHts_-I-23">
          <mxGeometry relative="1" as="geometry">
            <mxPoint x="440" y="1620" as="targetPoint" />
          </mxGeometry>
        </mxCell>
        <mxCell id="eADo7EbDgWxF7nHts_-I-23" value="input judul tak relevan" style="shape=parallelogram;perimeter=parallelogramPerimeter;whiteSpace=wrap;html=1;fixedSize=1;" vertex="1" parent="WIyWlLk6GJQsqaUBKTNV-1">
          <mxGeometry x="365" y="1560" width="150" height="30" as="geometry" />
        </mxCell>
        <mxCell id="eADo7EbDgWxF7nHts_-I-183" style="edgeStyle=orthogonalEdgeStyle;rounded=0;orthogonalLoop=1;jettySize=auto;html=1;" edge="1" parent="WIyWlLk6GJQsqaUBKTNV-1" source="eADo7EbDgWxF7nHts_-I-25">
          <mxGeometry relative="1" as="geometry">
            <mxPoint x="440" y="1800" as="targetPoint" />
          </mxGeometry>
        </mxCell>
        <mxCell id="eADo7EbDgWxF7nHts_-I-25" value="delete judul tak relevan" style="rounded=0;whiteSpace=wrap;html=1;" vertex="1" parent="WIyWlLk6GJQsqaUBKTNV-1">
          <mxGeometry x="400" y="1620" width="80" height="30" as="geometry" />
        </mxCell>
        <mxCell id="eADo7EbDgWxF7nHts_-I-28" style="edgeStyle=orthogonalEdgeStyle;rounded=0;orthogonalLoop=1;jettySize=auto;html=1;" edge="1" parent="WIyWlLk6GJQsqaUBKTNV-1" source="eADo7EbDgWxF7nHts_-I-27">
          <mxGeometry relative="1" as="geometry">
            <mxPoint x="300" y="1640" as="targetPoint" />
          </mxGeometry>
        </mxCell>
        <mxCell id="eADo7EbDgWxF7nHts_-I-27" value="if pilih == 5" style="rhombus;whiteSpace=wrap;html=1;" vertex="1" parent="WIyWlLk6GJQsqaUBKTNV-1">
          <mxGeometry x="250" y="1520" width="100" height="80" as="geometry" />
        </mxCell>
        <mxCell id="eADo7EbDgWxF7nHts_-I-200" style="edgeStyle=orthogonalEdgeStyle;rounded=0;orthogonalLoop=1;jettySize=auto;html=1;" edge="1" parent="WIyWlLk6GJQsqaUBKTNV-1" source="eADo7EbDgWxF7nHts_-I-33">
          <mxGeometry relative="1" as="geometry">
            <mxPoint x="290" y="2480" as="targetPoint" />
          </mxGeometry>
        </mxCell>
        <mxCell id="eADo7EbDgWxF7nHts_-I-33" value="output&amp;nbsp; &quot;Terima kasih telah mengakses program&quot;" style="shape=parallelogram;perimeter=parallelogramPerimeter;whiteSpace=wrap;html=1;fixedSize=1;" vertex="1" parent="WIyWlLk6GJQsqaUBKTNV-1">
          <mxGeometry x="195" y="1640" width="190" height="40" as="geometry" />
        </mxCell>
        <mxCell id="eADo7EbDgWxF7nHts_-I-42" style="edgeStyle=orthogonalEdgeStyle;rounded=0;orthogonalLoop=1;jettySize=auto;html=1;" edge="1" parent="WIyWlLk6GJQsqaUBKTNV-1" source="eADo7EbDgWxF7nHts_-I-39">
          <mxGeometry relative="1" as="geometry">
            <mxPoint x="270" y="1320" as="targetPoint" />
          </mxGeometry>
        </mxCell>
        <mxCell id="eADo7EbDgWxF7nHts_-I-208" value="True" style="edgeLabel;html=1;align=center;verticalAlign=middle;resizable=0;points=[];" vertex="1" connectable="0" parent="eADo7EbDgWxF7nHts_-I-42">
          <mxGeometry x="-0.4435" y="1" relative="1" as="geometry">
            <mxPoint as="offset" />
          </mxGeometry>
        </mxCell>
        <mxCell id="eADo7EbDgWxF7nHts_-I-164" style="edgeStyle=orthogonalEdgeStyle;rounded=0;orthogonalLoop=1;jettySize=auto;html=1;" edge="1" parent="WIyWlLk6GJQsqaUBKTNV-1" source="eADo7EbDgWxF7nHts_-I-39">
          <mxGeometry relative="1" as="geometry">
            <mxPoint y="1240" as="targetPoint" />
          </mxGeometry>
        </mxCell>
        <mxCell id="eADo7EbDgWxF7nHts_-I-207" value="False" style="edgeLabel;html=1;align=center;verticalAlign=middle;resizable=0;points=[];" vertex="1" connectable="0" parent="eADo7EbDgWxF7nHts_-I-164">
          <mxGeometry x="-0.7091" y="-2" relative="1" as="geometry">
            <mxPoint x="-1" as="offset" />
          </mxGeometry>
        </mxCell>
        <mxCell id="eADo7EbDgWxF7nHts_-I-39" value="if username_in == username&amp;nbsp;&lt;div&gt;and&amp;nbsp;&lt;span style=&quot;background-color: initial;&quot;&gt;&amp;nbsp;password_in == password&amp;nbsp;&lt;/span&gt;&lt;/div&gt;&lt;div&gt;&lt;span style=&quot;background-color: initial;&quot;&gt;and&amp;nbsp;&lt;/span&gt;&lt;span style=&quot;background-color: initial;&quot;&gt;role_in = &quot;pengguna&quot;&lt;/span&gt;&lt;/div&gt;" style="rhombus;whiteSpace=wrap;html=1;" vertex="1" parent="WIyWlLk6GJQsqaUBKTNV-1">
          <mxGeometry x="150" y="1110" width="240" height="150" as="geometry" />
        </mxCell>
        <mxCell id="eADo7EbDgWxF7nHts_-I-103" style="edgeStyle=orthogonalEdgeStyle;rounded=0;orthogonalLoop=1;jettySize=auto;html=1;" edge="1" parent="WIyWlLk6GJQsqaUBKTNV-1" source="eADo7EbDgWxF7nHts_-I-101" target="eADo7EbDgWxF7nHts_-I-102">
          <mxGeometry relative="1" as="geometry">
            <mxPoint x="265" y="1440" as="targetPoint" />
          </mxGeometry>
        </mxCell>
        <mxCell id="eADo7EbDgWxF7nHts_-I-101" value="&quot;Menu Utama&quot;&lt;div&gt;&lt;br&gt;&lt;/div&gt;" style="shape=parallelogram;perimeter=parallelogramPerimeter;whiteSpace=wrap;html=1;fixedSize=1;" vertex="1" parent="WIyWlLk6GJQsqaUBKTNV-1">
          <mxGeometry x="205" y="1320" width="120" height="60" as="geometry" />
        </mxCell>
        <mxCell id="eADo7EbDgWxF7nHts_-I-106" style="edgeStyle=orthogonalEdgeStyle;rounded=0;orthogonalLoop=1;jettySize=auto;html=1;" edge="1" parent="WIyWlLk6GJQsqaUBKTNV-1" source="eADo7EbDgWxF7nHts_-I-102" target="eADo7EbDgWxF7nHts_-I-104">
          <mxGeometry relative="1" as="geometry" />
        </mxCell>
        <mxCell id="eADo7EbDgWxF7nHts_-I-102" value="input pilih" style="shape=parallelogram;perimeter=parallelogramPerimeter;whiteSpace=wrap;html=1;fixedSize=1;" vertex="1" parent="WIyWlLk6GJQsqaUBKTNV-1">
          <mxGeometry x="70" y="1410" width="120" height="60" as="geometry" />
        </mxCell>
        <mxCell id="eADo7EbDgWxF7nHts_-I-110" style="edgeStyle=orthogonalEdgeStyle;rounded=0;orthogonalLoop=1;jettySize=auto;html=1;" edge="1" parent="WIyWlLk6GJQsqaUBKTNV-1" source="eADo7EbDgWxF7nHts_-I-104" target="eADo7EbDgWxF7nHts_-I-109">
          <mxGeometry relative="1" as="geometry" />
        </mxCell>
        <mxCell id="eADo7EbDgWxF7nHts_-I-220" value="True" style="edgeLabel;html=1;align=center;verticalAlign=middle;resizable=0;points=[];" vertex="1" connectable="0" parent="eADo7EbDgWxF7nHts_-I-110">
          <mxGeometry x="-0.2154" y="-2" relative="1" as="geometry">
            <mxPoint as="offset" />
          </mxGeometry>
        </mxCell>
        <mxCell id="eADo7EbDgWxF7nHts_-I-111" style="edgeStyle=orthogonalEdgeStyle;rounded=0;orthogonalLoop=1;jettySize=auto;html=1;" edge="1" parent="WIyWlLk6GJQsqaUBKTNV-1" source="eADo7EbDgWxF7nHts_-I-104">
          <mxGeometry relative="1" as="geometry">
            <mxPoint x="-40" y="1674.4443766276042" as="targetPoint" />
          </mxGeometry>
        </mxCell>
        <mxCell id="eADo7EbDgWxF7nHts_-I-219" value="False" style="edgeLabel;html=1;align=center;verticalAlign=middle;resizable=0;points=[];" vertex="1" connectable="0" parent="eADo7EbDgWxF7nHts_-I-111">
          <mxGeometry x="-0.5453" y="-1" relative="1" as="geometry">
            <mxPoint as="offset" />
          </mxGeometry>
        </mxCell>
        <mxCell id="eADo7EbDgWxF7nHts_-I-104" value="if&amp;nbsp; pilih == 1" style="rhombus;whiteSpace=wrap;html=1;" vertex="1" parent="WIyWlLk6GJQsqaUBKTNV-1">
          <mxGeometry x="80" y="1500" width="100" height="80" as="geometry" />
        </mxCell>
        <mxCell id="eADo7EbDgWxF7nHts_-I-190" style="edgeStyle=orthogonalEdgeStyle;rounded=0;orthogonalLoop=1;jettySize=auto;html=1;" edge="1" parent="WIyWlLk6GJQsqaUBKTNV-1" source="eADo7EbDgWxF7nHts_-I-109">
          <mxGeometry relative="1" as="geometry">
            <mxPoint x="130" y="2320" as="targetPoint" />
          </mxGeometry>
        </mxCell>
        <mxCell id="eADo7EbDgWxF7nHts_-I-109" value="input judul, pembaca,&amp;nbsp;&lt;div&gt;genre, rating&lt;/div&gt;" style="shape=parallelogram;perimeter=parallelogramPerimeter;whiteSpace=wrap;html=1;fixedSize=1;" vertex="1" parent="WIyWlLk6GJQsqaUBKTNV-1">
          <mxGeometry x="45" y="1710" width="170" height="60" as="geometry" />
        </mxCell>
        <mxCell id="eADo7EbDgWxF7nHts_-I-116" style="edgeStyle=orthogonalEdgeStyle;rounded=0;orthogonalLoop=1;jettySize=auto;html=1;entryX=0.5;entryY=0;entryDx=0;entryDy=0;" edge="1" parent="WIyWlLk6GJQsqaUBKTNV-1" source="eADo7EbDgWxF7nHts_-I-112" target="eADo7EbDgWxF7nHts_-I-113">
          <mxGeometry relative="1" as="geometry" />
        </mxCell>
        <mxCell id="eADo7EbDgWxF7nHts_-I-221" value="True" style="edgeLabel;html=1;align=center;verticalAlign=middle;resizable=0;points=[];" vertex="1" connectable="0" parent="eADo7EbDgWxF7nHts_-I-116">
          <mxGeometry x="0.0808" relative="1" as="geometry">
            <mxPoint as="offset" />
          </mxGeometry>
        </mxCell>
        <mxCell id="eADo7EbDgWxF7nHts_-I-119" style="edgeStyle=orthogonalEdgeStyle;rounded=0;orthogonalLoop=1;jettySize=auto;html=1;" edge="1" parent="WIyWlLk6GJQsqaUBKTNV-1" source="eADo7EbDgWxF7nHts_-I-112" target="eADo7EbDgWxF7nHts_-I-118">
          <mxGeometry relative="1" as="geometry" />
        </mxCell>
        <mxCell id="eADo7EbDgWxF7nHts_-I-222" value="False" style="edgeLabel;html=1;align=center;verticalAlign=middle;resizable=0;points=[];" vertex="1" connectable="0" parent="eADo7EbDgWxF7nHts_-I-119">
          <mxGeometry x="0.3755" y="-3" relative="1" as="geometry">
            <mxPoint as="offset" />
          </mxGeometry>
        </mxCell>
        <mxCell id="eADo7EbDgWxF7nHts_-I-112" value="if pilih == 2" style="rhombus;whiteSpace=wrap;html=1;" vertex="1" parent="WIyWlLk6GJQsqaUBKTNV-1">
          <mxGeometry x="-90" y="1674" width="100" height="80" as="geometry" />
        </mxCell>
        <mxCell id="eADo7EbDgWxF7nHts_-I-191" style="edgeStyle=orthogonalEdgeStyle;rounded=0;orthogonalLoop=1;jettySize=auto;html=1;" edge="1" parent="WIyWlLk6GJQsqaUBKTNV-1" source="eADo7EbDgWxF7nHts_-I-113">
          <mxGeometry relative="1" as="geometry">
            <mxPoint x="30" y="2320" as="targetPoint" />
          </mxGeometry>
        </mxCell>
        <mxCell id="eADo7EbDgWxF7nHts_-I-113" value="output judul, pembaca,&amp;nbsp;&lt;div&gt;genre, rating&lt;/div&gt;" style="shape=parallelogram;perimeter=parallelogramPerimeter;whiteSpace=wrap;html=1;fixedSize=1;" vertex="1" parent="WIyWlLk6GJQsqaUBKTNV-1">
          <mxGeometry x="-130" y="1820" width="180" height="40" as="geometry" />
        </mxCell>
        <mxCell id="eADo7EbDgWxF7nHts_-I-123" style="edgeStyle=orthogonalEdgeStyle;rounded=0;orthogonalLoop=1;jettySize=auto;html=1;exitX=0.5;exitY=1;exitDx=0;exitDy=0;entryX=0.5;entryY=0;entryDx=0;entryDy=0;" edge="1" parent="WIyWlLk6GJQsqaUBKTNV-1" source="eADo7EbDgWxF7nHts_-I-118" target="eADo7EbDgWxF7nHts_-I-120">
          <mxGeometry relative="1" as="geometry" />
        </mxCell>
        <mxCell id="eADo7EbDgWxF7nHts_-I-223" value="True" style="edgeLabel;html=1;align=center;verticalAlign=middle;resizable=0;points=[];" vertex="1" connectable="0" parent="eADo7EbDgWxF7nHts_-I-123">
          <mxGeometry x="-0.15" y="2" relative="1" as="geometry">
            <mxPoint as="offset" />
          </mxGeometry>
        </mxCell>
        <mxCell id="eADo7EbDgWxF7nHts_-I-160" style="edgeStyle=orthogonalEdgeStyle;rounded=0;orthogonalLoop=1;jettySize=auto;html=1;" edge="1" parent="WIyWlLk6GJQsqaUBKTNV-1" source="eADo7EbDgWxF7nHts_-I-118">
          <mxGeometry relative="1" as="geometry">
            <mxPoint x="-490" y="1990" as="targetPoint" />
          </mxGeometry>
        </mxCell>
        <mxCell id="eADo7EbDgWxF7nHts_-I-225" value="False" style="edgeLabel;html=1;align=center;verticalAlign=middle;resizable=0;points=[];" vertex="1" connectable="0" parent="eADo7EbDgWxF7nHts_-I-160">
          <mxGeometry x="-0.4508" relative="1" as="geometry">
            <mxPoint as="offset" />
          </mxGeometry>
        </mxCell>
        <mxCell id="eADo7EbDgWxF7nHts_-I-118" value="if pilih == 3" style="rhombus;whiteSpace=wrap;html=1;" vertex="1" parent="WIyWlLk6GJQsqaUBKTNV-1">
          <mxGeometry x="-250" y="1870" width="100" height="80" as="geometry" />
        </mxCell>
        <mxCell id="eADo7EbDgWxF7nHts_-I-135" style="edgeStyle=orthogonalEdgeStyle;rounded=0;orthogonalLoop=1;jettySize=auto;html=1;" edge="1" parent="WIyWlLk6GJQsqaUBKTNV-1" source="eADo7EbDgWxF7nHts_-I-120" target="eADo7EbDgWxF7nHts_-I-130">
          <mxGeometry relative="1" as="geometry" />
        </mxCell>
        <mxCell id="eADo7EbDgWxF7nHts_-I-120" value="input judul lama" style="shape=parallelogram;perimeter=parallelogramPerimeter;whiteSpace=wrap;html=1;fixedSize=1;" vertex="1" parent="WIyWlLk6GJQsqaUBKTNV-1">
          <mxGeometry x="-260" y="1990" width="120" height="30" as="geometry" />
        </mxCell>
        <mxCell id="eADo7EbDgWxF7nHts_-I-134" value="" style="group" vertex="1" connectable="0" parent="WIyWlLk6GJQsqaUBKTNV-1">
          <mxGeometry x="-390" y="2050" width="370" height="170" as="geometry" />
        </mxCell>
        <mxCell id="eADo7EbDgWxF7nHts_-I-126" style="edgeStyle=orthogonalEdgeStyle;rounded=0;orthogonalLoop=1;jettySize=auto;html=1;" edge="1" parent="eADo7EbDgWxF7nHts_-I-134" source="eADo7EbDgWxF7nHts_-I-130" target="eADo7EbDgWxF7nHts_-I-131">
          <mxGeometry relative="1" as="geometry">
            <mxPoint x="320" y="130" as="targetPoint" />
            <Array as="points">
              <mxPoint x="320" y="55" />
            </Array>
          </mxGeometry>
        </mxCell>
        <mxCell id="eADo7EbDgWxF7nHts_-I-127" value="True" style="edgeLabel;html=1;align=center;verticalAlign=middle;resizable=0;points=[];" vertex="1" connectable="0" parent="eADo7EbDgWxF7nHts_-I-126">
          <mxGeometry x="-0.4615" relative="1" as="geometry">
            <mxPoint as="offset" />
          </mxGeometry>
        </mxCell>
        <mxCell id="eADo7EbDgWxF7nHts_-I-128" style="edgeStyle=orthogonalEdgeStyle;rounded=0;orthogonalLoop=1;jettySize=auto;html=1;" edge="1" parent="eADo7EbDgWxF7nHts_-I-134" source="eADo7EbDgWxF7nHts_-I-130" target="eADo7EbDgWxF7nHts_-I-132">
          <mxGeometry relative="1" as="geometry">
            <mxPoint x="70" y="120" as="targetPoint" />
            <Array as="points">
              <mxPoint x="60" y="55" />
            </Array>
          </mxGeometry>
        </mxCell>
        <mxCell id="eADo7EbDgWxF7nHts_-I-129" value="False" style="edgeLabel;html=1;align=center;verticalAlign=middle;resizable=0;points=[];" vertex="1" connectable="0" parent="eADo7EbDgWxF7nHts_-I-128">
          <mxGeometry x="-0.4815" y="2" relative="1" as="geometry">
            <mxPoint as="offset" />
          </mxGeometry>
        </mxCell>
        <mxCell id="eADo7EbDgWxF7nHts_-I-130" value="judul lama == komik webtoon[i][0]" style="rhombus;whiteSpace=wrap;html=1;" vertex="1" parent="eADo7EbDgWxF7nHts_-I-134">
          <mxGeometry x="117.5" width="145" height="110" as="geometry" />
        </mxCell>
        <mxCell id="eADo7EbDgWxF7nHts_-I-192" style="edgeStyle=orthogonalEdgeStyle;rounded=0;orthogonalLoop=1;jettySize=auto;html=1;" edge="1" parent="eADo7EbDgWxF7nHts_-I-134" source="eADo7EbDgWxF7nHts_-I-131">
          <mxGeometry relative="1" as="geometry">
            <mxPoint x="310" y="270" as="targetPoint" />
          </mxGeometry>
        </mxCell>
        <mxCell id="eADo7EbDgWxF7nHts_-I-131" value="input data baru" style="shape=parallelogram;perimeter=parallelogramPerimeter;whiteSpace=wrap;html=1;fixedSize=1;" vertex="1" parent="eADo7EbDgWxF7nHts_-I-134">
          <mxGeometry x="250" y="130" width="120" height="40" as="geometry" />
        </mxCell>
        <mxCell id="eADo7EbDgWxF7nHts_-I-193" style="edgeStyle=orthogonalEdgeStyle;rounded=0;orthogonalLoop=1;jettySize=auto;html=1;" edge="1" parent="eADo7EbDgWxF7nHts_-I-134" source="eADo7EbDgWxF7nHts_-I-132">
          <mxGeometry relative="1" as="geometry">
            <mxPoint x="75" y="270" as="targetPoint" />
          </mxGeometry>
        </mxCell>
        <mxCell id="eADo7EbDgWxF7nHts_-I-132" value="Output &quot;Data tidak ditemukan.&quot;" style="shape=parallelogram;perimeter=parallelogramPerimeter;whiteSpace=wrap;html=1;fixedSize=1;" vertex="1" parent="eADo7EbDgWxF7nHts_-I-134">
          <mxGeometry y="130" width="150" height="40" as="geometry" />
        </mxCell>
        <mxCell id="eADo7EbDgWxF7nHts_-I-155" style="edgeStyle=orthogonalEdgeStyle;rounded=0;orthogonalLoop=1;jettySize=auto;html=1;" edge="1" parent="WIyWlLk6GJQsqaUBKTNV-1" source="eADo7EbDgWxF7nHts_-I-156" target="eADo7EbDgWxF7nHts_-I-157">
          <mxGeometry relative="1" as="geometry">
            <mxPoint x="-499" y="2160.909090909091" as="targetPoint" />
            <Array as="points">
              <mxPoint x="-490" y="2090" />
              <mxPoint x="-490" y="2090" />
            </Array>
          </mxGeometry>
        </mxCell>
        <mxCell id="eADo7EbDgWxF7nHts_-I-156" value="if pilih == 4" style="rhombus;whiteSpace=wrap;html=1;" vertex="1" parent="WIyWlLk6GJQsqaUBKTNV-1">
          <mxGeometry x="-540" y="1969.999090909091" width="100" height="80" as="geometry" />
        </mxCell>
        <mxCell id="eADo7EbDgWxF7nHts_-I-199" style="edgeStyle=orthogonalEdgeStyle;rounded=0;orthogonalLoop=1;jettySize=auto;html=1;" edge="1" parent="WIyWlLk6GJQsqaUBKTNV-1" source="eADo7EbDgWxF7nHts_-I-157">
          <mxGeometry relative="1" as="geometry">
            <mxPoint x="-485" y="2480" as="targetPoint" />
          </mxGeometry>
        </mxCell>
        <mxCell id="eADo7EbDgWxF7nHts_-I-157" value="output&amp;nbsp; &quot;Terima kasih telah mengakses program&quot;" style="shape=parallelogram;perimeter=parallelogramPerimeter;whiteSpace=wrap;html=1;fixedSize=1;" vertex="1" parent="WIyWlLk6GJQsqaUBKTNV-1">
          <mxGeometry x="-580" y="2079.999090909091" width="190" height="40" as="geometry" />
        </mxCell>
        <mxCell id="eADo7EbDgWxF7nHts_-I-167" style="edgeStyle=orthogonalEdgeStyle;rounded=0;orthogonalLoop=1;jettySize=auto;html=1;" edge="1" parent="WIyWlLk6GJQsqaUBKTNV-1">
          <mxGeometry relative="1" as="geometry">
            <mxPoint x="-79.97" y="1339.7058823529412" as="targetPoint" />
            <mxPoint x="-79.99941176470585" y="1270" as="sourcePoint" />
          </mxGeometry>
        </mxCell>
        <mxCell id="eADo7EbDgWxF7nHts_-I-168" value="output &quot;Gagal Login.&quot;" style="shape=parallelogram;perimeter=parallelogramPerimeter;whiteSpace=wrap;html=1;fixedSize=1;" vertex="1" parent="WIyWlLk6GJQsqaUBKTNV-1">
          <mxGeometry x="-150" y="1210" width="160" height="60" as="geometry" />
        </mxCell>
        <mxCell id="eADo7EbDgWxF7nHts_-I-170" style="edgeStyle=orthogonalEdgeStyle;rounded=0;orthogonalLoop=1;jettySize=auto;html=1;entryX=0;entryY=0.5;entryDx=0;entryDy=0;" edge="1" parent="WIyWlLk6GJQsqaUBKTNV-1" source="eADo7EbDgWxF7nHts_-I-169" target="SZtpY77A_bUP3VGcqHaU-40">
          <mxGeometry relative="1" as="geometry">
            <mxPoint x="-90" y="750" as="targetPoint" />
            <Array as="points">
              <mxPoint x="-250" y="1370" />
              <mxPoint x="-250" y="950" />
              <mxPoint x="100" y="950" />
              <mxPoint x="100" y="725" />
            </Array>
          </mxGeometry>
        </mxCell>
        <mxCell id="eADo7EbDgWxF7nHts_-I-169" value="login += 1" style="rounded=0;whiteSpace=wrap;html=1;" vertex="1" parent="WIyWlLk6GJQsqaUBKTNV-1">
          <mxGeometry x="-140" y="1340" width="120" height="60" as="geometry" />
        </mxCell>
        <mxCell id="eADo7EbDgWxF7nHts_-I-185" value="" style="endArrow=none;html=1;rounded=0;" edge="1" parent="WIyWlLk6GJQsqaUBKTNV-1">
          <mxGeometry width="50" height="50" relative="1" as="geometry">
            <mxPoint x="440" y="1800" as="sourcePoint" />
            <mxPoint x="930" y="1800" as="targetPoint" />
          </mxGeometry>
        </mxCell>
        <mxCell id="eADo7EbDgWxF7nHts_-I-187" value="" style="endArrow=classic;html=1;rounded=0;" edge="1" parent="WIyWlLk6GJQsqaUBKTNV-1">
          <mxGeometry width="50" height="50" relative="1" as="geometry">
            <mxPoint x="440" y="1790" as="sourcePoint" />
            <mxPoint x="1040" y="1870" as="targetPoint" />
            <Array as="points">
              <mxPoint x="440" y="1870" />
            </Array>
          </mxGeometry>
        </mxCell>
        <mxCell id="eADo7EbDgWxF7nHts_-I-188" value="" style="endArrow=classic;html=1;rounded=0;" edge="1" parent="WIyWlLk6GJQsqaUBKTNV-1">
          <mxGeometry width="50" height="50" relative="1" as="geometry">
            <mxPoint x="1040" y="1870" as="sourcePoint" />
            <mxPoint x="1040" y="1037.948749248798" as="targetPoint" />
            <Array as="points">
              <mxPoint x="1040" y="1790" />
            </Array>
          </mxGeometry>
        </mxCell>
        <mxCell id="eADo7EbDgWxF7nHts_-I-189" value="" style="endArrow=classic;html=1;rounded=0;entryX=0.917;entryY=0.417;entryDx=0;entryDy=0;entryPerimeter=0;" edge="1" parent="WIyWlLk6GJQsqaUBKTNV-1" target="GJBjV4vL7WstKXEYxfG4-2">
          <mxGeometry width="50" height="50" relative="1" as="geometry">
            <mxPoint x="1040" y="1040" as="sourcePoint" />
            <mxPoint x="750" y="1070" as="targetPoint" />
            <Array as="points">
              <mxPoint x="960" y="1040" />
            </Array>
          </mxGeometry>
        </mxCell>
        <mxCell id="eADo7EbDgWxF7nHts_-I-195" value="" style="endArrow=none;html=1;rounded=0;" edge="1" parent="WIyWlLk6GJQsqaUBKTNV-1">
          <mxGeometry width="50" height="50" relative="1" as="geometry">
            <mxPoint x="-590" y="2320" as="sourcePoint" />
            <mxPoint x="130" y="2320" as="targetPoint" />
            <Array as="points">
              <mxPoint x="20" y="2320" />
            </Array>
          </mxGeometry>
        </mxCell>
        <mxCell id="eADo7EbDgWxF7nHts_-I-196" value="" style="endArrow=classic;html=1;rounded=0;" edge="1" parent="WIyWlLk6GJQsqaUBKTNV-1">
          <mxGeometry width="50" height="50" relative="1" as="geometry">
            <mxPoint x="-590" y="2320" as="sourcePoint" />
            <mxPoint x="-600" y="1440" as="targetPoint" />
          </mxGeometry>
        </mxCell>
        <mxCell id="eADo7EbDgWxF7nHts_-I-197" value="" style="endArrow=classic;html=1;rounded=0;" edge="1" parent="WIyWlLk6GJQsqaUBKTNV-1" target="eADo7EbDgWxF7nHts_-I-102">
          <mxGeometry width="50" height="50" relative="1" as="geometry">
            <mxPoint x="-600" y="1440" as="sourcePoint" />
            <mxPoint x="-140" y="1290" as="targetPoint" />
          </mxGeometry>
        </mxCell>
        <mxCell id="eADo7EbDgWxF7nHts_-I-201" value="" style="endArrow=none;html=1;rounded=0;" edge="1" parent="WIyWlLk6GJQsqaUBKTNV-1">
          <mxGeometry width="50" height="50" relative="1" as="geometry">
            <mxPoint x="-480" y="2480" as="sourcePoint" />
            <mxPoint x="290" y="2480" as="targetPoint" />
          </mxGeometry>
        </mxCell>
        <mxCell id="eADo7EbDgWxF7nHts_-I-202" value="end" style="rounded=1;whiteSpace=wrap;html=1;" vertex="1" parent="WIyWlLk6GJQsqaUBKTNV-1">
          <mxGeometry x="-150" y="2450" width="120" height="60" as="geometry" />
        </mxCell>
      </root>
    </mxGraphModel>
  </diagram>
</mxfile>
